<svg width="386" height="386" viewBox="0 0 386 386" fill="none" xmlns="http://www.w3.org/2000/svg">
<path opacity="0.2" d="M17.9155 -2.08107H16.9396V388.081H17.9155V-2.08107Z" fill="white"/>
<path opacity="0.2" d="M37.4236 -2.08107H36.4477V388.081H37.4236V-2.08107Z" fill="white"/>
<path opacity="0.2" d="M56.9316 -2.08107H55.9557V388.081H56.9316V-2.08107Z" fill="white"/>
<path opacity="0.2" d="M76.4388 -2.08107H75.4639V388.081H76.4388V-2.08107Z" fill="white"/>
<path opacity="0.5" d="M95.9469 -2.08107H94.971V388.081H95.9469V-2.08107Z" fill="white"/>
<path opacity="0.2" d="M115.455 -2.08107H114.48V388.081H115.455V-2.08107Z" fill="white"/>
<path opacity="0.2" d="M134.963 -2.08107H133.988V388.081H134.963V-2.08107Z" fill="white"/>
<path opacity="0.2" d="M154.471 -2.08107H153.496V388.081H154.471V-2.08107Z" fill="white"/>
<path opacity="0.2" d="M173.979 -2.08107H173.004V388.081H173.979V-2.08107Z" fill="white"/>
<path opacity="0.5" d="M193.487 -2.08107H192.512V388.081H193.487V-2.08107Z" fill="white"/>
<path opacity="0.2" d="M212.996 -2.08107H212.021V388.081H212.996V-2.08107Z" fill="white"/>
<path opacity="0.2" d="M232.505 -2.08107H231.529V388.081H232.505V-2.08107Z" fill="white"/>
<path opacity="0.2" d="M252.012 -2.08107H251.036V388.081H252.012V-2.08107Z" fill="white"/>
<path opacity="0.2" d="M271.52 -2.08107H270.545V388.081H271.52V-2.08107Z" fill="white"/>
<path opacity="0.5" d="M291.028 -2.08107H290.053V388.081H291.028V-2.08107Z" fill="white"/>
<path opacity="0.2" d="M310.536 -2.08107H309.561V388.081H310.536V-2.08107Z" fill="white"/>
<path opacity="0.2" d="M330.045 -2.08107H329.069V388.081H330.045V-2.08107Z" fill="white"/>
<path opacity="0.2" d="M349.552 -2.08107H348.576V388.081H349.552V-2.08107Z" fill="white"/>
<path opacity="0.2" d="M369.06 -2.08107H368.085V388.081H369.06V-2.08107Z" fill="white"/>
<path opacity="0.2" d="M388.081 16.9396H-2.08109V17.9155H388.081V16.9396Z" fill="white"/>
<path opacity="0.2" d="M388.081 36.4477H-2.08109V37.4236H388.081V36.4477Z" fill="white"/>
<path opacity="0.2" d="M388.081 55.9557H-2.08109V56.9316H388.081V55.9557Z" fill="white"/>
<path opacity="0.2" d="M388.081 75.4639H-2.08109V76.4398H388.081V75.4639Z" fill="white"/>
<path opacity="0.5" d="M388.081 94.971H-2.08109V95.9469H388.081V94.971Z" fill="white"/>
<path opacity="0.2" d="M388.081 114.48H-2.08109V115.456H388.081V114.48Z" fill="white"/>
<path opacity="0.2" d="M388.081 133.988H-2.08109V134.964H388.081V133.988Z" fill="white"/>
<path opacity="0.2" d="M388.081 153.496H-2.08109V154.472H388.081V153.496Z" fill="white"/>
<path opacity="0.2" d="M388.081 173.004H-2.08109V173.98H388.081V173.004Z" fill="white"/>
<path opacity="0.5" d="M388.081 192.513H-2.08109V193.488H388.081V192.513Z" fill="white"/>
<path opacity="0.2" d="M388.081 212.021H-2.08109V212.996H388.081V212.021Z" fill="white"/>
<path opacity="0.2" d="M388.081 231.529H-2.08109V232.505H388.081V231.529Z" fill="white"/>
<path opacity="0.2" d="M388.081 251.036H-2.08109V252.012H388.081V251.036Z" fill="white"/>
<path opacity="0.2" d="M388.081 270.545H-2.08109V271.52H388.081V270.545Z" fill="white"/>
<path opacity="0.5" d="M388.081 290.053H-2.08109V291.028H388.081V290.053Z" fill="white"/>
<path opacity="0.2" d="M388.081 309.561H-2.08109V310.536H388.081V309.561Z" fill="white"/>
<path opacity="0.2" d="M388.081 329.069H-2.08109V330.045H388.081V329.069Z" fill="white"/>
<path opacity="0.2" d="M388.081 348.576H-2.08109V349.552H388.081V348.576Z" fill="white"/>
<path opacity="0.2" d="M388.081 368.085H-2.08109V369.06H388.081V368.085Z" fill="white"/>
<path d="M1.81081 95.2162H-5V96.1892H1.81081V95.2162Z" fill="white"/>
<path d="M391 95.2162H384.189V96.1892H391V95.2162Z" fill="white"/>
<path d="M1.81081 192.513H-5V193.486H1.81081V192.513Z" fill="white"/>
<path d="M391 192.513H384.189V193.486H391V192.513Z" fill="white"/>
<path d="M1.81081 289.811H-5V290.784H1.81081V289.811Z" fill="white"/>
<path d="M391 289.811H384.189V290.784H391V289.811Z" fill="white"/>
<path d="M96.1892 -5H95.2162V1.81081H96.1892V-5Z" fill="white"/>
<path d="M96.1892 92.2973H95.2162V99.1081H96.1892V92.2973Z" fill="white"/>
<path d="M99.1081 95.2162H92.2973V96.1892H99.1081V95.2162Z" fill="white"/>
<path d="M96.1892 189.595H95.2162V196.405H96.1892V189.595Z" fill="white"/>
<path d="M99.1081 192.513H92.2973V193.486H99.1081V192.513Z" fill="white"/>
<path d="M96.1892 286.892H95.2162V293.703H96.1892V286.892Z" fill="white"/>
<path d="M99.1081 289.811H92.2973V290.784H99.1081V289.811Z" fill="white"/>
<path d="M96.1892 384.189H95.2162V391H96.1892V384.189Z" fill="white"/>
<path d="M193.487 -5H192.514V1.81081H193.487V-5Z" fill="white"/>
<path d="M193.487 92.2973H192.514V99.1081H193.487V92.2973Z" fill="white"/>
<path d="M196.405 95.2162H189.595V96.1892H196.405V95.2162Z" fill="white"/>
<path d="M193.487 189.595H192.514V196.405H193.487V189.595Z" fill="white"/>
<path d="M196.405 192.513H189.595V193.486H196.405V192.513Z" fill="white"/>
<path d="M193.487 286.892H192.514V293.703H193.487V286.892Z" fill="white"/>
<path d="M196.405 289.811H189.595V290.784H196.405V289.811Z" fill="white"/>
<path d="M193.487 384.189H192.514V391H193.487V384.189Z" fill="white"/>
<path d="M290.784 -5H289.811V1.81081H290.784V-5Z" fill="white"/>
<path d="M290.784 92.2973H289.811V99.1081H290.784V92.2973Z" fill="white"/>
<path d="M293.703 95.2162H286.892V96.1892H293.703V95.2162Z" fill="white"/>
<path d="M290.784 189.595H289.811V196.405H290.784V189.595Z" fill="white"/>
<path d="M293.703 192.513H286.892V193.486H293.703V192.513Z" fill="white"/>
<path d="M290.784 286.892H289.811V293.703H290.784V286.892Z" fill="white"/>
<path d="M293.703 289.811H286.892V290.784H293.703V289.811Z" fill="white"/>
<path d="M290.784 384.189H289.811V391H290.784V384.189Z" fill="white"/>
<path d="M47.5405 46.5676H46.5676V47.5405H47.5405V46.5676Z" fill="white"/>
<path d="M144.838 46.5676H143.865V47.5405H144.838V46.5676Z" fill="white"/>
<path d="M242.135 46.5676H241.162V47.5405H242.135V46.5676Z" fill="white"/>
<path d="M339.432 46.5676H338.459V47.5405H339.432V46.5676Z" fill="white"/>
<path d="M47.5405 143.865H46.5676V144.838H47.5405V143.865Z" fill="white"/>
<path d="M144.838 143.865H143.865V144.838H144.838V143.865Z" fill="white"/>
<path d="M242.135 143.865H241.162V144.838H242.135V143.865Z" fill="white"/>
<path d="M339.432 143.865H338.459V144.838H339.432V143.865Z" fill="white"/>
<path d="M47.5405 241.162H46.5676V242.135H47.5405V241.162Z" fill="white"/>
<path d="M144.838 241.162H143.865V242.135H144.838V241.162Z" fill="white"/>
<path d="M242.135 241.162H241.162V242.135H242.135V241.162Z" fill="white"/>
<path d="M339.432 241.162H338.459V242.135H339.432V241.162Z" fill="white"/>
<path d="M47.5405 338.459H46.5676V339.432H47.5405V338.459Z" fill="white"/>
<path d="M144.838 338.459H143.865V339.432H144.838V338.459Z" fill="white"/>
<path d="M242.135 338.459H241.162V339.432H242.135V338.459Z" fill="white"/>
<path d="M339.432 338.459H338.459V339.432H339.432V338.459Z" fill="white"/>
</svg>
