<svg width="398" height="412" viewBox="0 0 398 412" fill="none" xmlns="http://www.w3.org/2000/svg">
<g opacity="0.6">
<g filter="url(#filter0_f_2_20350)">
<path d="M199 398C231.137 398 262.795 390.217 291.269 375.316L285.443 364.184C258.767 378.144 229.108 385.436 199 385.436V398Z" fill="url(#paint0_linear_2_20350)"/>
</g>
<g filter="url(#filter1_f_2_20350)">
<path d="M199 398C227.001 398 254.688 392.091 280.249 380.658C305.81 369.225 328.671 352.527 347.337 331.655L337.971 323.279C320.484 342.834 299.066 358.478 275.119 369.189C251.172 379.899 225.233 385.436 199 385.436V398Z" fill="url(#paint1_linear_2_20350)"/>
</g>
<rect x="198" y="198" width="2" height="2" fill="black" fill-opacity="0.01"/>
</g>
<defs>
<filter id="filter0_f_2_20350" x="185.7" y="350.884" width="118.869" height="60.4157" filterUnits="userSpaceOnUse" color-interpolation-filters="sRGB">
<feFlood flood-opacity="0" result="BackgroundImageFix"/>
<feBlend mode="normal" in="SourceGraphic" in2="BackgroundImageFix" result="shape"/>
<feGaussianBlur stdDeviation="6.65" result="effect1_foregroundBlur_2_20350"/>
</filter>
<filter id="filter1_f_2_20350" x="185.7" y="309.979" width="174.937" height="101.321" filterUnits="userSpaceOnUse" color-interpolation-filters="sRGB">
<feFlood flood-opacity="0" result="BackgroundImageFix"/>
<feBlend mode="normal" in="SourceGraphic" in2="BackgroundImageFix" result="shape"/>
<feGaussianBlur stdDeviation="6.65" result="effect1_foregroundBlur_2_20350"/>
</filter>
<linearGradient id="paint0_linear_2_20350" x1="199" y1="398" x2="290.767" y2="375.316" gradientUnits="userSpaceOnUse">
<stop stop-color="white"/>
<stop offset="1" stop-color="white" stop-opacity="0"/>
</linearGradient>
<linearGradient id="paint1_linear_2_20350" x1="199" y1="398" x2="343" y2="327" gradientUnits="userSpaceOnUse">
<stop stop-color="white"/>
<stop offset="1" stop-color="white" stop-opacity="0"/>
</linearGradient>
</defs>
</svg>
